<svg width="43" height="40" viewBox="0 0 43 40" fill="none" xmlns="http://www.w3.org/2000/svg">
<g clip-path="url(#clip0)">
<path d="M21.6934 0C10.2117 0 0.899414 8.955 0.899414 20C0.899414 28.8367 6.85689 36.3333 15.1208 38.9783C16.1587 39.1633 16.4949 38.5433 16.4949 38.0167V34.2933C10.7107 35.5033 9.50639 31.9333 9.50639 31.9333C8.56027 29.6217 7.19653 29.0067 7.19653 29.0067C5.30947 27.765 7.34035 27.7917 7.34035 27.7917C9.42842 27.9317 10.527 29.8533 10.527 29.8533C12.3812 32.91 15.3911 32.0267 16.5781 31.515C16.7635 30.2233 17.3024 29.34 17.8985 28.8417C13.2805 28.3333 8.42511 26.6183 8.42511 18.9567C8.42511 16.7717 9.2378 14.9883 10.5669 13.5883C10.352 13.0833 9.63982 11.0483 10.7696 8.295C10.7696 8.295 12.5163 7.75833 16.4897 10.345C18.148 9.90166 19.9259 9.68 21.6934 9.67167C23.4609 9.68 25.2405 9.90166 26.9023 10.345C30.8722 7.75833 32.6154 8.295 32.6154 8.295C33.747 11.05 33.0348 13.085 32.8199 13.5883C34.1542 14.9883 34.96 16.7733 34.96 18.9567C34.96 26.6383 30.0959 28.33 25.4658 28.825C26.2109 29.445 26.8919 30.6617 26.8919 32.5283V38.0167C26.8919 38.5483 27.2246 39.1733 28.2799 38.9767C36.5368 36.3283 42.4874 28.8333 42.4874 20C42.4874 8.955 33.1769 0 21.6934 0Z" fill="white"/>
</g>
<defs>
<clipPath id="clip0">
<path d="M0.899414 0H42.4874V40H0.899414V0Z" fill="white"/>
</clipPath>
</defs>
</svg>
