<svg width="44" height="40" viewBox="0 0 44 40" fill="none" xmlns="http://www.w3.org/2000/svg">
<g clip-path="url(#clip0)">
<path fill-rule="evenodd" clip-rule="evenodd" d="M5.96354 11.4783C6.01664 10.9867 5.8166 10.5017 5.42714 10.1717L1.46169 5.67167V5H13.7794L23.3 24.6583L31.6699 5H43.4122V5.67167L40.0204 8.73333C39.7283 8.94333 39.5831 9.28833 39.6433 9.63V32.1267C39.5831 32.4667 39.7283 32.8117 40.0204 33.0217L43.3326 36.0833V36.755H26.6706V36.0833L30.1032 32.9467C30.4396 32.63 30.4396 32.5367 30.4396 32.0517V13.8683L20.8995 36.6817H19.6107L8.50213 13.8683V29.1583C8.41008 29.8 8.63667 30.4483 9.11642 30.9117L13.5793 36.0083V36.6817H0.925293V36.0083L5.38819 30.9117C5.86617 30.4467 6.0786 29.795 5.96354 29.1583V11.4783Z" fill="white"/>
</g>
<defs>
<clipPath id="clip0">
<path d="M0.925293 0H43.4122V40H0.925293V0Z" fill="white"/>
</clipPath>
</defs>
</svg>
