<svg width="22" height="20" viewBox="0 0 22 20" fill="none" xmlns="http://www.w3.org/2000/svg">
<g clip-path="url(#clip0)">
<path d="M13.6789 0C15.1835 0.00179816 16.6538 0.442964 17.904 1.26777C19.1543 2.09257 20.1284 3.264 20.7033 4.63407C21.2782 6.00415 21.4282 7.51139 21.1342 8.9654C20.8402 10.4194 20.1155 11.7549 19.0516 12.8033C17.9878 13.8516 16.6324 14.5658 15.1568 14.8554C13.6813 15.1451 12.1517 14.9974 10.7613 14.4308C9.37091 13.8643 8.18211 12.9044 7.34508 11.6724C6.50805 10.4405 6.06035 8.99168 6.05852 7.50909C6.05852 5.51756 6.86139 3.60759 8.29049 2.19936C9.7196 0.791134 11.6579 0 13.6789 0ZM0.0710449 20H3.76132V0H0.0710449V20Z" fill="#FF505F"/>
</g>
<defs>
<clipPath id="clip0">
<path d="M0.486938 0H21.2809V20H0.486938V0Z" fill="white"/>
</clipPath>
</defs>
</svg>
