<svg width="20" height="20" viewBox="0 0 20 20" fill="none" xmlns="http://www.w3.org/2000/svg">
<path d="M5.83333 14.9491H5V8.2258C5.25667 8.0333 5.5325 7.8683 5.83333 7.75414V14.9491ZM8.33333 14.9491H9.16667V7.26247C8.97583 7.4833 8.7975 7.71914 8.64917 7.97664L8.33333 7.8233V14.9491ZM6.66667 14.9491H7.5V7.5758C7.07667 7.50997 6.98083 7.53414 6.66667 7.56747V14.9491ZM3.33333 14.9491H4.16667V9.09914C3.90667 9.4808 3.70417 9.9083 3.59 10.3783L3.33333 10.2266V14.9491ZM0.833333 10.5741C0.328333 11.03 0 11.7025 0 12.4641C0 13.2258 0.328333 13.8983 0.833333 14.3541V10.5741ZM16.5658 10.015C16.3958 7.6508 14.5625 5.78247 12.3017 5.78247C11.45 5.78247 10.665 6.0558 10 6.5133V14.9491H17.5742C18.9133 14.9491 20 13.7883 20 12.3608C20 10.5 18.1933 9.21747 16.5658 10.015ZM2.5 9.99247C2.24833 9.97247 2.06167 9.96747 1.66667 10.0941V14.835C2.03833 14.9541 2.19667 14.95 2.5 14.95V9.99247Z" fill="#FF7139"/>
</svg>
