<svg width="15" height="20" viewBox="0 0 15 20" fill="none" xmlns="http://www.w3.org/2000/svg">
<g clip-path="url(#clip0)">
<path d="M14.4492 3.82422L11.1719 0.546875C10.8203 0.195313 10.3438 -0.00390625 9.84766 -0.00390625H1.875C0.839844 0 0 0.839844 0 1.875V18.125C0 19.1602 0.839844 20 1.875 20H13.125C14.1602 20 15 19.1602 15 18.125V5.15234C15 4.65625 14.8008 4.17578 14.4492 3.82422ZM12.9727 5H10V2.02734L12.9727 5ZM1.875 18.125V1.875H8.125V5.9375C8.125 6.45703 8.54297 6.875 9.0625 6.875H13.125V18.125H1.875ZM10.1562 8.75H9.03125C8.85938 8.75 8.70312 8.84375 8.62109 8.99609C7.91797 10.2891 7.75391 10.6523 7.50391 11.25C6.96094 10.1133 7.23438 10.5742 6.38672 8.99609C6.30469 8.84375 6.14453 8.75 5.97266 8.75H4.84375C4.48047 8.75 4.25781 9.14062 4.4375 9.45312L6.24609 12.5L4.4375 15.5469C4.25391 15.8594 4.48047 16.25 4.84375 16.25H5.97266C6.14453 16.25 6.30078 16.1562 6.38281 16.0039C7.23047 14.4414 7.28125 14.2461 7.5 13.75C8.08203 14.9297 7.73047 14.3711 8.61719 16.0039C8.69922 16.1562 8.85938 16.25 9.03125 16.25H10.1562C10.5195 16.25 10.7422 15.8594 10.5625 15.5469L8.75 12.5C8.77734 12.457 9.93359 10.5273 10.5586 9.45312C10.7422 9.14062 10.5156 8.75 10.1562 8.75Z" fill="#2BC4A2"/>
</g>
<defs>
<clipPath id="clip0">
<path d="M0 0H15V20H0V0Z" fill="white"/>
</clipPath>
</defs>
</svg>
