<svg width="20" height="20" viewBox="0 0 20 20" fill="none" xmlns="http://www.w3.org/2000/svg">
<g clip-path="url(#clip0)">
<path d="M5.15677 7.26591C5.52261 6.90007 5.92844 6.5984 6.36011 6.36007C8.76594 5.03424 11.8509 5.73924 13.3976 8.08424L11.5259 9.95507C10.9893 8.73091 9.65677 8.03424 8.33094 8.3309C7.83177 8.44257 7.35761 8.69174 6.97011 9.07924L3.38344 12.6676C2.29427 13.7567 2.29427 15.5284 3.38344 16.6176C4.47261 17.7067 6.24427 17.7067 7.33344 16.6176L8.43927 15.5117C9.44511 15.9109 10.5234 16.0701 11.5884 15.9909L9.14761 18.4317C7.05511 20.5242 3.66261 20.5242 1.57011 18.4317C-0.522392 16.3392 -0.522392 12.9467 1.57011 10.8542L5.15677 7.26591ZM10.8534 1.56924L8.41261 4.01007C9.47677 3.93007 10.5559 4.09007 11.5618 4.48841L12.6668 3.3834C13.7559 2.29424 15.5276 2.29424 16.6168 3.3834C17.7059 4.47257 17.7059 6.24424 16.6168 7.33341L13.0293 10.9209C11.9368 12.0134 10.1626 12.0042 9.07927 10.9209C8.82677 10.6684 8.60927 10.3542 8.47344 10.0451L6.60177 11.9159C6.79844 12.2142 7.00261 12.4717 7.26511 12.7342C7.94177 13.4109 8.80344 13.9151 9.79511 14.1542C11.0801 14.4634 12.4568 14.2926 13.6393 13.6401C14.0709 13.4017 14.4768 13.1001 14.8426 12.7342L18.4293 9.14674C20.5226 7.05424 20.5226 3.66174 18.4301 1.56924C16.3376 -0.522428 12.9459 -0.522428 10.8534 1.56924Z" fill="#321C64"/>
</g>
<defs>
<clipPath id="clip0">
<path d="M0 0H20V20H0V0Z" fill="white"/>
</clipPath>
</defs>
</svg>
