<svg width="15" height="20" viewBox="0 0 15 20" fill="none" xmlns="http://www.w3.org/2000/svg">
<g clip-path="url(#clip0)">
<path d="M14.4492 3.82422L11.1719 0.546875C10.8203 0.195313 10.3438 -0.00390625 9.84766 -0.00390625H1.875C0.839844 0 0 0.839844 0 1.875V18.125C0 19.1602 0.839844 20 1.875 20H13.125C14.1602 20 15 19.1602 15 18.125V5.15234C15 4.65625 14.8008 4.17578 14.4492 3.82422ZM12.9727 5H10V2.02734L12.9727 5ZM1.875 18.125V1.875H8.125V5.9375C8.125 6.45703 8.54297 6.875 9.0625 6.875H13.125V18.125H1.875ZM11.6484 12.5117C11.1719 12.043 9.8125 12.1719 9.13281 12.2578C8.46094 11.8477 8.01172 11.2812 7.69531 10.4492C7.84766 9.82031 8.08984 8.86328 7.90625 8.26172C7.74219 7.23828 6.42969 7.33984 6.24219 8.03125C6.07031 8.66016 6.22656 9.53516 6.51562 10.6523C6.125 11.5859 5.54297 12.8398 5.13281 13.5586C4.35156 13.9609 3.29688 14.582 3.14062 15.3633C3.01172 15.9805 4.15625 17.5195 6.11328 14.1445C6.98828 13.8555 7.94141 13.5 8.78516 13.3594C9.52344 13.7578 10.3867 14.0234 10.9648 14.0234C11.9609 14.0234 12.0586 12.9219 11.6484 12.5117ZM3.91016 15.5508C4.10938 15.0156 4.86719 14.3984 5.09766 14.1836C4.35547 15.3672 3.91016 15.5781 3.91016 15.5508ZM7.09766 8.10547C7.38672 8.10547 7.35938 9.35938 7.16797 9.69922C6.99609 9.15625 7 8.10547 7.09766 8.10547ZM6.14453 13.4414C6.52344 12.7813 6.84766 11.9961 7.10938 11.3047C7.43359 11.8945 7.84766 12.3672 8.28516 12.6914C7.47266 12.8594 6.76562 13.2031 6.14453 13.4414ZM11.2852 13.2461C11.2852 13.2461 11.0898 13.4805 9.82812 12.9414C11.1992 12.8398 11.4258 13.1523 11.2852 13.2461Z" fill="#FF505F"/>
</g>
<defs>
<clipPath id="clip0">
<path d="M0 0H15V20H0V0Z" fill="white"/>
</clipPath>
</defs>
</svg>
