<svg width="15" height="20" viewBox="0 0 15 20" fill="none" xmlns="http://www.w3.org/2000/svg">
<g clip-path="url(#clip0)">
<path d="M14.4492 3.82422L11.1719 0.546875C10.8203 0.195313 10.3438 -0.00390625 9.84766 -0.00390625H1.875C0.839844 4.65661e-10 0 0.839844 0 1.875V18.125C0 19.1602 0.839844 20 1.875 20H13.125C14.1602 20 15 19.1602 15 18.125V5.15234C15 4.65625 14.8008 4.17578 14.4492 3.82422ZM12.9727 5H10V2.02734L12.9727 5ZM1.875 18.125V1.875H8.125V5.9375C8.125 6.45703 8.54297 6.875 9.0625 6.875H13.125V18.125H1.875ZM4.6875 15.7813V9.21875C4.6875 8.96094 4.89844 8.75 5.15625 8.75H7.85938C9.29297 8.75 10.3125 9.80469 10.3125 11.3398C10.3125 14.2422 7.62891 13.9375 6.58203 13.9375V15.7813C6.58203 16.0391 6.37109 16.25 6.11328 16.25H5.15625C4.89844 16.25 4.6875 16.0391 4.6875 15.7813ZM6.58203 12.3672H7.48047C7.78906 12.3672 8.02344 12.2734 8.1875 12.0859C8.51953 11.7031 8.51562 10.9727 8.19141 10.6094C8.03125 10.4297 7.80469 10.3359 7.51172 10.3359H6.57812V12.3672H6.58203Z" fill="#FF7139"/>
</g>
<defs>
<clipPath id="clip0">
<path d="M0 0H15V20H0V0Z" fill="white"/>
</clipPath>
</defs>
</svg>
