<svg width="15" height="20" viewBox="0 0 15 20" fill="none" xmlns="http://www.w3.org/2000/svg">
<g clip-path="url(#clip0)">
<path d="M14.4492 3.82422L11.1719 0.546875C10.8203 0.195313 10.3438 -0.00390625 9.84766 -0.00390625H1.875C0.839844 0 0 0.839844 0 1.875V18.125C0 19.1602 0.839844 20 1.875 20H13.125C14.1602 20 15 19.1602 15 18.125V5.15234C15 4.65625 14.8008 4.17578 14.4492 3.82422ZM12.9727 5H10V2.02734L12.9727 5ZM1.875 18.125V1.875H8.125V5.9375C8.125 6.45703 8.54297 6.875 9.0625 6.875H13.125V18.125H1.875ZM10.4727 10C10.25 10 10.0586 10.1562 10.0156 10.3711C9.21094 14.1875 9.21875 14.0977 9.19531 14.4141C9.1875 14.3672 9.17969 14.3125 9.16797 14.2461C9.13672 14.0469 9.17969 14.2539 8.24609 10.3594C8.19531 10.1484 8.00781 10 7.78906 10H7.26953C7.05469 10 6.86719 10.1484 6.8125 10.3555C5.85938 14.2227 5.875 14.1133 5.84375 14.4062C5.83984 14.3633 5.83594 14.3086 5.82422 14.2422C5.79688 14.0391 5.27344 11.3789 5.07812 10.375C5.03516 10.1563 4.84375 9.99609 4.61719 9.99609H3.96094C3.65625 9.99609 3.43359 10.2813 3.50391 10.5742C3.81641 11.8477 4.54688 14.8516 4.80078 15.8867C4.85156 16.0977 5.03906 16.2422 5.25781 16.2422H6.24219C6.45703 16.2422 6.64453 16.0977 6.69531 15.8867L7.39453 13.0977C7.45312 12.8555 7.49219 12.6289 7.51172 12.4219L7.625 13.0977C7.62891 13.1133 8.11719 15.0703 8.32422 15.8867C8.375 16.0938 8.5625 16.2422 8.77734 16.2422H9.74219C9.95703 16.2422 10.1445 16.0977 10.1953 15.8867C11.0078 12.6875 11.375 11.2383 11.543 10.5742C11.6172 10.2773 11.3945 9.99219 11.0898 9.99219H10.4727V10Z" fill="#0290EE"/>
</g>
<defs>
<clipPath id="clip0">
<path d="M0 0H15V20H0V0Z" fill="white"/>
</clipPath>
</defs>
</svg>
