<svg width="20" height="20" viewBox="0 0 20 20" fill="none" xmlns="http://www.w3.org/2000/svg">
<path fill-rule="evenodd" clip-rule="evenodd" d="M20 8.58668C20 4.11251 15.5142 0.47168 10 0.47168C4.48667 0.47168 0 4.11251 0 8.58668C0 12.5983 3.5575 15.9583 8.36333 16.5933C8.68917 16.6633 9.13167 16.8083 9.24417 17.0867C9.345 17.3392 9.31 17.735 9.27667 17.9908L9.13417 18.8467C9.09 19.0992 8.9325 19.835 10 19.3858C11.0675 18.9358 15.7592 15.995 17.8567 13.58C19.3058 11.9908 20 10.3775 20 8.58668ZM4.17667 6.42418C4.28417 6.42418 4.37167 6.51168 4.37167 6.61918V10.08H6.2775C6.385 10.08 6.47167 10.1667 6.47167 10.2742V10.9758C6.47167 11.0833 6.385 11.1708 6.2775 11.1708H3.475C3.4225 11.1708 3.37583 11.15 3.34083 11.1167L3.34 11.1158L3.33833 11.1142L3.3375 11.1133L3.335 11.1108C3.30167 11.0758 3.28083 11.0283 3.28083 10.9767V6.61918C3.28083 6.51168 3.3675 6.42418 3.475 6.42418H4.17667ZM16.67 6.42418C16.7775 6.42418 16.8642 6.51168 16.8642 6.61918V7.32085C16.8642 7.42835 16.7775 7.51585 16.67 7.51585H14.7642V8.25168H16.67C16.7775 8.25168 16.8642 8.33918 16.8642 8.44668V9.14835C16.8642 9.25585 16.7775 9.34335 16.67 9.34335H14.7642V10.08H16.67C16.7775 10.08 16.8642 10.1675 16.8642 10.2742V10.9758C16.8642 11.0833 16.7775 11.1708 16.67 11.1708H13.8675C13.815 11.1708 13.7675 11.15 13.7325 11.1167L13.73 11.1133L13.7275 11.1108C13.6942 11.0758 13.6725 11.0283 13.6725 10.9767V6.61918C13.6725 6.56751 13.6933 6.52001 13.7267 6.48501L13.73 6.48168L13.7325 6.47918C13.7675 6.44585 13.815 6.42418 13.8675 6.42418H16.67ZM7.96833 6.42501C8.07583 6.42501 8.16333 6.51168 8.16333 6.61918V10.9767C8.16333 11.0833 8.07583 11.1708 7.96833 11.1708H7.26667C7.15917 11.1708 7.07167 11.0833 7.07167 10.9767V6.61918C7.07167 6.51168 7.15917 6.42501 7.26667 6.42501H7.96833ZM9.74083 6.42501H9.7475L9.7575 6.42585L9.76833 6.42668L9.77667 6.42751L9.7875 6.43001L9.79417 6.43251L9.80583 6.43585L9.8125 6.43835L9.82333 6.44335L9.82917 6.44585L9.84 6.45168L9.84583 6.45501L9.85583 6.46251L9.86083 6.46585L9.87167 6.47501L9.875 6.47835L9.88667 6.49001L9.88833 6.49168L9.90333 6.51085L11.9 9.20751V6.61918C11.9 6.51168 11.9875 6.42501 12.095 6.42501H12.7958C12.9042 6.42501 12.9908 6.51168 12.9908 6.61918V10.9767C12.9908 11.0833 12.9042 11.1708 12.7958 11.1708H12.095L12.045 11.1642L12.0417 11.1633L12.0292 11.1592L12.0233 11.1567L12.0133 11.1533L12.0042 11.1483L11.9983 11.1458L11.9867 11.1383L11.985 11.1367L11.935 11.0883L9.93583 8.38835V10.9767C9.93583 11.0833 9.84917 11.1708 9.74083 11.1708H9.04C8.9325 11.1708 8.845 11.0833 8.845 10.9767V6.61918C8.845 6.51168 8.9325 6.42501 9.04 6.42501H9.74083Z" fill="#2BC4A2"/>
</svg>
