<svg width="43" height="40" viewBox="0 0 43 40" fill="none" xmlns="http://www.w3.org/2000/svg">
<g clip-path="url(#clip0)">
<path d="M26.8711 0C29.8802 0.00359633 32.8208 0.885928 35.3212 2.53553C37.8217 4.18513 39.7699 6.528 40.9198 9.26814C42.0697 12.0083 42.3696 15.0228 41.7816 17.9308C41.1937 20.8388 39.7443 23.5099 37.6165 25.6066C35.4887 27.7033 32.778 29.1315 29.8269 29.7109C26.8757 30.2902 23.8166 29.9947 21.0358 28.8617C18.255 27.7286 15.8774 25.8088 14.2034 23.3449C12.5293 20.8809 11.6339 17.9834 11.6302 15.0182C11.6302 11.0351 13.236 7.21518 16.0942 4.39872C18.9524 1.58227 22.8289 0 26.8711 0ZM-0.344727 40H7.03583V0H-0.344727V40Z" fill="white"/>
</g>
<defs>
<clipPath id="clip0">
<path d="M0.487305 0H42.0753V40H0.487305V0Z" fill="white"/>
</clipPath>
</defs>
</svg>
