<svg width="20" height="20" viewBox="0 0 20 20" fill="none" xmlns="http://www.w3.org/2000/svg">
<g clip-path="url(#clip0)">
<path fill-rule="evenodd" clip-rule="evenodd" d="M15.32 18.9824C15.5883 19.1724 15.9341 19.2199 16.2425 19.1032C16.5508 18.9857 16.7775 18.7224 16.8458 18.4032C17.57 14.9999 19.3266 6.38571 19.9858 3.28988C20.0358 3.05655 19.9525 2.81405 19.7691 2.65821C19.5858 2.50238 19.3316 2.45738 19.105 2.54155C15.6108 3.83488 4.84997 7.87238 0.451632 9.49988C0.172465 9.60321 -0.00920133 9.87155 -3.46662e-05 10.1657C0.00996533 10.4607 0.208299 10.7165 0.494132 10.8024C2.46663 11.3924 5.0558 12.2132 5.0558 12.2132C5.0558 12.2132 6.2658 15.8674 6.89663 17.7257C6.9758 17.959 7.1583 18.1424 7.39913 18.2057C7.63913 18.2682 7.8958 18.2024 8.07496 18.0332C9.0883 17.0765 10.655 15.5974 10.655 15.5974C10.655 15.5974 13.6316 17.7799 15.32 18.9824ZM6.14497 11.7515L7.54413 16.3665L7.85496 13.444C7.85496 13.444 13.2608 8.56821 16.3425 5.78905C16.4325 5.70738 16.445 5.57071 16.37 5.47488C16.2958 5.37905 16.1591 5.35655 16.0566 5.42155C12.485 7.70238 6.14497 11.7515 6.14497 11.7515Z" fill="#00B3F5"/>
</g>
<defs>
<clipPath id="clip0">
<path d="M0 0H20V20H0V0Z" fill="white"/>
</clipPath>
</defs>
</svg>
