<svg width="22" height="20" viewBox="0 0 22 20" fill="none" xmlns="http://www.w3.org/2000/svg">
<g clip-path="url(#clip0)">
<path d="M21.4869 3.79746C20.7053 4.12412 19.8653 4.34412 18.9837 4.44329C19.8839 3.93579 20.5752 3.13162 20.9 2.17329C20.0583 2.64329 19.1253 2.98496 18.1322 3.16912C17.3382 2.37162 16.2043 1.87329 14.951 1.87329C12.1371 1.87329 10.0694 4.34496 10.7049 6.91079C7.0838 6.73996 3.8725 5.10662 1.72248 2.62412C0.580648 4.46829 1.13032 6.88079 3.07056 8.10246C2.35713 8.08079 1.68442 7.89662 1.09757 7.58912C1.04977 9.48996 2.49699 11.2683 4.59301 11.6641C3.9796 11.8208 3.30778 11.8575 2.62445 11.7341C3.17855 13.3641 4.78774 14.55 6.69611 14.5833C4.86386 15.9358 2.55541 16.54 0.243408 16.2833C2.17214 17.4475 4.46378 18.1266 6.92448 18.1266C15.0165 18.1266 19.5882 11.6925 19.3121 5.92162C20.1636 5.34246 20.9027 4.61996 21.4869 3.79746Z" fill="#0290EE"/>
</g>
<defs>
<clipPath id="clip0">
<path d="M0.243408 0H21.4869V20H0.243408V0Z" fill="white"/>
</clipPath>
</defs>
</svg>
