<svg width="43" height="40" viewBox="0 0 43 40" fill="none" xmlns="http://www.w3.org/2000/svg">
<g clip-path="url(#clip0)">
<path d="M42.899 7.59492C41.3359 8.24825 39.6559 8.68825 37.8927 8.88658C39.6931 7.87158 41.0756 6.26325 41.7253 4.34658C40.0418 5.28658 38.1759 5.96992 36.1896 6.33825C34.6017 4.74325 32.334 3.74658 29.8272 3.74658C24.1995 3.74658 20.0641 8.68992 21.3352 13.8216C14.0929 13.4799 7.67029 10.2132 3.37026 5.24825C1.08659 8.93658 2.18594 13.7616 6.06641 16.2049C4.63956 16.1616 3.29414 15.7932 2.12044 15.1782C2.02484 18.9799 4.91927 22.5366 9.11131 23.3282C7.8845 23.6416 6.54085 23.7149 5.17419 23.4682C6.28239 26.7282 9.50077 29.0999 13.3175 29.1666C9.65302 31.8716 5.0361 33.0799 0.412109 32.5666C4.26957 34.8949 8.85285 36.2533 13.7743 36.2533C29.9582 36.2533 39.1018 23.3849 38.5494 11.8432C40.2525 10.6849 41.7307 9.23992 42.899 7.59492Z" fill="white"/>
</g>
<defs>
<clipPath id="clip0">
<path d="M0.412109 0H42.899V40H0.412109V0Z" fill="white"/>
</clipPath>
</defs>
</svg>
